<svg width="217" height="165" viewBox="0 0 217 165" fill="none" xmlns="http://www.w3.org/2000/svg">
<rect width="217" height="165" fill="url(#paint0_linear_624_71)"/>
<rect x="20" y="15" width="177" height="134" fill="#1E272D"/>
<path d="M77.751 137H170V28H47V137H77.751ZM147.453 35.5172H161.8V44.9138H147.453V35.5172ZM147.453 52.431H161.8V61.8276H147.453V52.431ZM147.453 69.3448H161.8V78.7414H147.453V69.3448ZM147.453 86.2586H161.8V95.6552H147.453V86.2586ZM147.453 103.172H161.8V112.569H147.453V103.172ZM147.453 120.086H161.8V129.483H147.453V120.086ZM77.751 69.3448V35.5172H139.249V78.7414H77.751V69.3448ZM77.751 120.086V86.2586H139.249V129.483H77.751V120.086ZM55.2003 35.5172H69.5507V44.9138H55.2003V35.5172ZM55.2003 52.431H69.5507V61.8276H55.2003V52.431ZM55.2003 69.3448H69.5507V78.7414H55.2003V69.3448ZM55.2003 86.2586H69.5507V95.6552H55.2003V86.2586ZM55.2003 103.172H69.5507V112.569H55.2003V103.172ZM55.2003 120.086H69.5507V129.483H55.2003V120.086Z" fill="#F4F4F4"/>
<defs>
<linearGradient id="paint0_linear_624_71" x1="242.601" y1="647.778" x2="-58.5556" y2="9.96593" gradientUnits="userSpaceOnUse">
<stop offset="0.699455" stop-color="#FE5937"/>
<stop offset="0.857163" stop-color="#EFD54A"/>
<stop offset="1" stop-color="#FFE769"/>
</linearGradient>
</defs>
</svg>
