<svg width="343" height="165" viewBox="0 0 343 165" fill="none" xmlns="http://www.w3.org/2000/svg">
<rect width="343" height="165" fill="url(#paint0_linear_624_53)"/>
<rect x="19" y="15" width="305" height="134" fill="#1E272D"/>
<path d="M40.4964 110L41.4114 60.59H48.1824L56.9054 100.667L65.6894 60.59H72.3994L73.3144 110H67.7634L67.2144 74.132L58.8574 110H54.9534L46.6574 74.132L46.1084 110H40.4964ZM93.5149 110.549C90.1803 110.549 87.5166 109.898 85.5239 108.597C83.5313 107.296 82.1079 105.445 81.2539 103.046C80.3999 100.606 79.9729 97.7593 79.9729 94.506V75.779C79.9729 72.5257 80.3999 69.74 81.2539 67.422C82.1486 65.0633 83.5719 63.274 85.5239 62.054C87.5166 60.7933 90.1803 60.163 93.5149 60.163C96.8496 60.163 99.4929 60.7933 101.445 62.054C103.397 63.3147 104.8 65.104 105.654 67.422C106.549 69.74 106.996 72.5257 106.996 75.779V94.567C106.996 97.7797 106.549 100.586 105.654 102.985C104.8 105.384 103.397 107.255 101.445 108.597C99.4929 109.898 96.8496 110.549 93.5149 110.549ZM93.5149 105.12C95.3449 105.12 96.7276 104.754 97.6629 104.022C98.5983 103.249 99.2286 102.192 99.5539 100.85C99.8793 99.4673 100.042 97.861 100.042 96.031V74.376C100.042 72.546 99.8793 70.9803 99.5539 69.679C99.2286 68.337 98.5983 67.3203 97.6629 66.629C96.7276 65.897 95.3449 65.531 93.5149 65.531C91.6849 65.531 90.2819 65.897 89.3059 66.629C88.3706 67.3203 87.7403 68.337 87.4149 69.679C87.0896 70.9803 86.9269 72.546 86.9269 74.376V96.031C86.9269 97.861 87.0896 99.4673 87.4149 100.85C87.7403 102.192 88.3706 103.249 89.3059 104.022C90.2819 104.754 91.6849 105.12 93.5149 105.12ZM122.193 110L111.152 60.59H117.618L125.426 97.007L132.868 60.59H139.151L128.232 110H122.193ZM144.756 110V60.59H151.527V110H144.756ZM159.521 110V60.59H178.675V65.714H166.414V82.062H176.357V86.942H166.414V105.059H178.797V110H159.521ZM198.301 110V60.59H209.647C211.884 60.59 213.815 60.834 215.442 61.322C217.109 61.81 218.492 62.5623 219.59 63.579C220.688 64.5957 221.501 65.897 222.03 67.483C222.559 69.0283 222.823 70.8583 222.823 72.973C222.823 75.0063 222.559 76.7753 222.03 78.28C221.542 79.744 220.769 80.903 219.712 81.757C218.695 82.611 217.374 83.16 215.747 83.404C217.74 83.8513 219.346 84.624 220.566 85.722C221.786 86.7793 222.681 88.162 223.25 89.87C223.86 91.5373 224.165 93.5503 224.165 95.909C224.165 98.0237 223.921 99.9553 223.433 101.704C222.945 103.453 222.172 104.937 221.115 106.157C220.098 107.377 218.777 108.333 217.15 109.024C215.564 109.675 213.673 110 211.477 110H198.301ZM205.194 105.059H209.83C212.921 105.059 214.974 104.347 215.991 102.924C217.048 101.46 217.577 99.1217 217.577 95.909C217.577 93.835 217.292 92.1067 216.723 90.724C216.194 89.3007 215.32 88.2433 214.1 87.552C212.921 86.82 211.314 86.454 209.281 86.454H205.194V105.059ZM205.194 81.208H209.281C211.233 81.208 212.758 80.9437 213.856 80.415C214.954 79.8457 215.727 78.951 216.174 77.731C216.621 76.511 216.845 74.925 216.845 72.973C216.845 70.6957 216.499 69.0487 215.808 68.032C215.117 67.0153 214.039 66.385 212.575 66.141C211.111 65.8563 209.2 65.714 206.841 65.714H205.194V81.208ZM243.039 110.549C239.461 110.549 236.716 109.837 234.804 108.414C232.893 106.991 231.592 104.998 230.9 102.436C230.209 99.8333 229.863 96.8037 229.863 93.347V60.59H236.451V93.652C236.451 95.7667 236.594 97.6983 236.878 99.447C237.163 101.196 237.773 102.578 238.708 103.595C239.684 104.612 241.128 105.12 243.039 105.12C244.991 105.12 246.435 104.612 247.37 103.595C248.306 102.578 248.916 101.196 249.2 99.447C249.485 97.6983 249.627 95.7667 249.627 93.652V60.59H256.154V93.347C256.154 96.8037 255.809 99.8333 255.117 102.436C254.426 104.998 253.125 106.991 251.213 108.414C249.343 109.837 246.618 110.549 243.039 110.549ZM263.411 110V60.59H282.504V65.531H270.304V82.001H279.759V86.881H270.304V110H263.411ZM287.239 110V60.59H306.332V65.531H294.132V82.001H303.587V86.881H294.132V110H287.239Z" fill="#F4F4F4"/>
<defs>
<linearGradient id="paint0_linear_624_53" x1="383.466" y1="647.778" x2="169.55" y2="-68.3304" gradientUnits="userSpaceOnUse">
<stop offset="0.699455" stop-color="#FE5937"/>
<stop offset="0.857163" stop-color="#EFD54A"/>
<stop offset="1" stop-color="#FFE769"/>
</linearGradient>
</defs>
</svg>
